<svg xmlns="http://www.w3.org/2000/svg" xmlns:xlink="http://www.w3.org/1999/xlink" width="1080" zoomAndPan="magnify" viewBox="0 0 810 809.999993" height="1080" preserveAspectRatio="xMidYMid meet" version="1.0"><defs><clipPath id="3b3c5570fd"><path d="M 105.371094 84 L 704.621094 84 L 704.621094 726.289062 L 105.371094 726.289062 Z M 105.371094 84 " clip-rule="nonzero"/></clipPath></defs><path fill="#9bc9ff" d="M 687.585938 552.339844 L 616.960938 552.339844 L 616.960938 709.332031 L 687.585938 709.332031 Z M 558.324219 337.761719 L 558.324219 179.835938 L 402.464844 101.945312 L 246.523438 179.832031 L 246.523438 189.640625 L 447.515625 189.640625 C 451.542969 189.640625 454.761719 192.859375 454.761719 196.886719 L 454.761719 292.296875 C 454.761719 296.289062 451.488281 299.460938 447.515625 299.460938 L 246.523438 299.460938 L 246.523438 317.402344 L 447.515625 317.402344 C 451.542969 317.402344 454.761719 320.625 454.761719 324.652344 L 454.761719 420.0625 C 454.761719 424.054688 451.488281 427.226562 447.515625 427.226562 L 281.945312 427.226562 C 290.582031 435.371094 296.097656 440.476562 306.425781 447.382812 L 402.464844 511.578125 L 498.421875 447.382812 C 536.808594 421.699219 558.324219 384.148438 558.324219 337.761719 Z M 558.324219 337.761719 " fill-opacity="1" fill-rule="evenodd"/><g clip-path="url(#3b3c5570fd)"><path fill="#a4f6e1" d="M 304.070312 377.253906 L 296.351562 380.15625 L 301.164062 387.125 C 305.59375 393.566406 300.984375 402.558594 293.035156 402.558594 C 286.742188 402.558594 284.375 397.554688 281.085938 392.769531 L 277.269531 398.328125 C 274.199219 402.804688 268.0625 403.96875 263.582031 400.816406 C 259.101562 397.746094 258.023438 391.605469 261.09375 387.125 L 265.90625 380.15625 L 258.6875 377.417969 C 253.542969 375.511719 251.054688 369.785156 252.960938 364.726562 C 254.871094 359.664062 260.59375 357.09375 265.65625 359.082031 L 271.296875 361.15625 L 271.296875 351.949219 C 271.296875 346.472656 275.695312 342.074219 281.085938 342.074219 C 286.5625 342.074219 290.960938 346.472656 290.960938 351.949219 L 290.960938 361.15625 L 297.015625 358.835938 C 302.160156 356.925781 307.804688 359.5 309.792969 364.558594 C 311.703125 369.621094 309.128906 375.34375 304.070312 377.253906 Z M 395.082031 377.253906 L 387.367188 380.15625 L 392.179688 387.125 C 395.25 391.605469 394.167969 397.746094 389.6875 400.816406 C 385.210938 403.96875 379.070312 402.804688 376 398.328125 L 372.183594 392.769531 C 368.816406 397.675781 366.578125 402.558594 360.238281 402.558594 C 352.285156 402.558594 347.675781 393.566406 352.105469 387.125 L 356.917969 380.15625 L 349.703125 377.417969 C 344.640625 375.511719 342.070312 369.785156 343.976562 364.726562 C 345.96875 359.664062 351.609375 357.09375 356.671875 359.082031 L 362.3125 361.15625 L 362.3125 351.949219 C 362.3125 346.472656 366.710938 342.074219 372.1875 342.074219 C 377.578125 342.074219 381.976562 346.472656 381.976562 351.949219 L 381.976562 361.15625 L 388.113281 358.835938 C 393.175781 356.925781 398.816406 359.5 400.808594 364.558594 C 402.714844 369.621094 400.140625 375.34375 395.082031 377.253906 Z M 356.667969 231.316406 L 362.308594 233.390625 L 362.308594 224.183594 C 362.308594 218.707031 366.707031 214.308594 372.183594 214.308594 C 377.574219 214.308594 381.972656 218.707031 381.972656 224.183594 L 381.972656 233.390625 L 388.113281 231.070312 C 393.171875 229.160156 398.816406 231.734375 400.804688 236.792969 C 402.710938 241.855469 400.140625 247.578125 395.078125 249.488281 L 387.363281 252.472656 L 392.175781 259.359375 C 395.246094 263.839844 394.167969 269.976562 389.6875 273.046875 C 385.207031 276.199219 379.070312 275.039062 376 270.558594 L 372.183594 265 C 368.8125 269.910156 366.574219 274.789062 360.234375 274.789062 C 352.253906 274.789062 347.683594 265.746094 352.105469 259.359375 L 356.917969 252.472656 L 349.699219 249.652344 C 344.636719 247.742188 342.066406 242.019531 343.976562 236.960938 C 345.964844 231.898438 351.609375 229.328125 356.667969 231.316406 Z M 174.644531 231.316406 L 180.285156 233.390625 L 180.203125 224.183594 C 180.203125 218.707031 184.683594 214.308594 190.078125 214.308594 C 195.550781 214.308594 199.949219 218.707031 199.949219 224.183594 L 199.949219 233.390625 L 206.003906 231.070312 C 211.066406 229.160156 216.789062 231.734375 218.699219 236.792969 C 220.691406 241.855469 218.117188 247.578125 213.058594 249.488281 L 205.339844 252.472656 L 210.070312 259.359375 C 214.640625 265.933594 209.878906 274.789062 202.023438 274.789062 C 195.6875 274.789062 193.445312 269.910156 190.078125 265 L 186.261719 270.558594 C 183.191406 275.039062 177.050781 276.199219 172.570312 273.046875 C 168.089844 269.976562 167.011719 263.839844 170.082031 259.359375 L 174.894531 252.472656 L 167.59375 249.652344 C 162.535156 247.742188 159.960938 242.019531 161.953125 236.960938 C 163.859375 231.898438 169.582031 229.328125 174.644531 231.316406 Z M 213.058594 377.253906 L 205.339844 380.15625 L 210.070312 387.125 C 214.671875 393.78125 209.773438 402.558594 202.023438 402.558594 C 195.683594 402.558594 193.445312 397.675781 190.078125 392.769531 L 186.261719 398.328125 C 183.191406 402.804688 177.050781 403.96875 172.570312 400.816406 C 168.089844 397.746094 167.011719 391.605469 170.082031 387.125 L 174.894531 380.15625 L 167.59375 377.417969 C 162.535156 375.511719 159.960938 369.785156 161.953125 364.726562 C 163.859375 359.664062 169.503906 357.09375 174.648438 359.082031 L 180.289062 361.15625 L 180.207031 351.949219 C 180.207031 346.472656 184.683594 342.074219 190.078125 342.074219 C 195.554688 342.074219 199.949219 346.472656 199.949219 351.949219 L 199.949219 361.15625 L 206.007812 358.835938 C 211.070312 356.925781 216.792969 359.5 218.703125 364.558594 C 220.691406 369.621094 218.117188 375.34375 213.058594 377.253906 Z M 125.03125 282.425781 L 437.640625 282.425781 L 437.640625 206.679688 L 125.03125 206.679688 Z M 437.640625 334.445312 L 125.03125 334.445312 L 125.03125 410.191406 L 437.640625 410.191406 Z M 288.554688 429.851562 C 294.363281 435.328125 300.835938 440.472656 307.886719 445.199219 L 402.464844 508.417969 L 496.960938 445.199219 C 535.375 419.480469 555.699219 382.398438 555.699219 337.761719 L 555.699219 181.457031 L 402.464844 104.878906 L 249.148438 181.457031 L 249.148438 187.015625 L 447.515625 187.015625 C 452.988281 187.015625 457.386719 191.414062 457.386719 196.890625 L 457.386719 292.296875 C 457.386719 297.691406 452.992188 302.085938 447.515625 302.085938 L 249.144531 302.085938 L 249.144531 314.78125 L 447.515625 314.78125 C 452.988281 314.78125 457.386719 319.179688 457.386719 324.65625 L 457.386719 420.066406 C 457.386719 425.457031 452.992188 429.855469 447.515625 429.855469 L 288.554688 429.855469 Z M 229.484375 302.085938 L 229.484375 314.78125 L 115.242188 314.78125 C 109.769531 314.78125 105.367188 319.179688 105.367188 324.65625 L 105.367188 420.066406 C 105.367188 425.457031 109.765625 429.855469 115.242188 429.855469 L 261.675781 429.855469 C 271.382812 441.71875 283.246094 452.335938 296.933594 461.546875 L 396.988281 528.417969 C 400.242188 530.617188 404.492188 530.632812 407.859375 528.417969 L 507.914062 461.546875 C 551.1875 432.605469 575.363281 389.640625 575.363281 337.761719 L 575.363281 175.398438 C 575.363281 171.667969 573.289062 168.265625 569.972656 166.605469 L 406.78125 85.050781 C 404.042969 83.726562 400.804688 83.726562 397.984375 85.050781 L 234.875 166.605469 C 231.558594 168.265625 229.484375 171.664062 229.484375 175.398438 L 229.484375 187.015625 L 115.242188 187.015625 C 109.769531 187.015625 105.367188 191.414062 105.367188 196.890625 L 105.367188 292.296875 C 105.367188 297.691406 109.765625 302.085938 115.242188 302.085938 Z M 167.675781 530.570312 L 168.671875 529.328125 C 172.652344 524.515625 179.207031 523.269531 184.601562 526.339844 C 230.507812 552.246094 286.761719 584.023438 321.160156 595.535156 C 330.371094 598.605469 340.078125 600.59375 350.117188 601.589844 C 357.609375 615.328125 373.753906 621.53125 389.441406 618.347656 C 405.375 615.113281 425.496094 609.523438 440.296875 608.144531 C 445.523438 607.648438 450.75 607.8125 456.394531 608.644531 C 461.703125 609.390625 466.765625 605.65625 467.511719 600.261719 C 468.339844 594.871094 464.523438 589.890625 459.214844 589.144531 C 452.078125 588.066406 445.109375 587.902344 438.390625 588.566406 C 422.222656 590.140625 402.253906 595.601562 385.375 599.101562 C 370.417969 602.203125 361.386719 588.972656 367.289062 578.195312 C 369.195312 574.710938 372.265625 572.136719 376 571.058594 L 456.558594 546.75 C 486.527344 537.6875 507.75 567.582031 541.265625 576.867188 C 547.820312 578.691406 560.847656 579.023438 567.980469 579.023438 L 599.921875 579.1875 L 599.921875 673.105469 C 550.890625 673.105469 490.742188 674.101562 462.867188 678.082031 C 437.195312 681.765625 410.335938 691.476562 385.292969 689.449219 C 355.507812 687.042969 323.238281 668.457031 292.871094 648.796875 C 252.035156 622.324219 200.347656 577.964844 168.671875 547.746094 C 163.941406 543.265625 163.445312 535.714844 167.675781 530.570312 Z M 619.585938 554.964844 L 684.960938 554.964844 L 684.960938 706.707031 L 619.582031 706.707031 L 619.582031 554.964844 Z M 152.492188 518.042969 L 153.488281 516.800781 C 163.445312 504.6875 180.617188 501.453125 194.304688 509.167969 C 239.390625 534.699219 294.796875 565.992188 327.382812 576.867188 C 333.355469 578.859375 339.578125 580.351562 346.046875 581.265625 C 347.542969 568.074219 356.75 556.292969 370.355469 552.226562 L 450.832031 527.917969 C 477.546875 519.871094 498.285156 532.316406 516.621094 543.351562 C 526.660156 549.324219 536.121094 555.046875 546.488281 557.867188 C 553.703125 559.882812 588.5625 559.417969 599.917969 559.445312 L 599.917969 545.09375 C 599.917969 539.699219 604.316406 535.304688 609.792969 535.304688 L 694.832031 535.304688 C 700.226562 535.304688 704.621094 539.699219 704.621094 545.09375 L 704.621094 716.496094 C 704.621094 721.972656 700.226562 726.371094 694.832031 726.371094 L 609.792969 726.371094 C 604.320312 726.371094 599.921875 721.972656 599.921875 716.496094 L 599.921875 692.769531 C 534.460938 692.769531 487.003906 694.511719 465.683594 697.582031 C 441.265625 701.117188 417.984375 709.445312 392.34375 709.445312 C 354.574219 709.445312 317.070312 687.90625 282.164062 665.308594 C 238.648438 637.136719 188.695312 593.777344 155.148438 562.101562 C 142.867188 550.484375 141.707031 531.152344 152.492188 518.042969 Z M 252.960938 236.960938 C 254.871094 231.898438 260.59375 229.328125 265.65625 231.316406 L 271.296875 233.390625 L 271.296875 224.183594 C 271.296875 218.707031 275.695312 214.308594 281.085938 214.308594 C 286.5625 214.308594 290.960938 218.707031 290.960938 224.183594 L 290.960938 233.390625 L 297.015625 231.070312 C 302.160156 229.160156 307.804688 231.734375 309.792969 236.792969 C 311.703125 241.855469 309.128906 247.578125 304.070312 249.488281 L 296.355469 252.472656 L 301.167969 259.359375 C 305.585938 265.746094 301.019531 274.789062 293.035156 274.789062 C 286.746094 274.789062 284.375 269.785156 281.089844 265 L 277.273438 270.558594 C 274.203125 275.039062 268.0625 276.199219 263.582031 273.046875 C 259.101562 269.976562 258.023438 263.839844 261.09375 259.359375 L 265.90625 252.472656 L 258.6875 249.652344 C 253.542969 247.746094 251.054688 242.019531 252.960938 236.960938 Z M 252.960938 236.960938 " fill-opacity="1" fill-rule="evenodd"/></g></svg>