<svg xmlns="http://www.w3.org/2000/svg" xmlns:xlink="http://www.w3.org/1999/xlink" width="1080" zoomAndPan="magnify" viewBox="0 0 810 809.999993" height="1080" preserveAspectRatio="xMidYMid meet" version="1.0"><defs><clipPath id="92d252d12d"><path d="M 193 174 L 574 174 L 574 766 L 193 766 Z M 193 174 " clip-rule="nonzero"/></clipPath><clipPath id="e6587e7f91"><path d="M 151.730469 91.773438 L 441.5625 30.445312 L 587.039062 717.976562 L 297.203125 779.300781 Z M 151.730469 91.773438 " clip-rule="nonzero"/></clipPath><clipPath id="8fced54e00"><path d="M 151.730469 91.773438 L 441.5625 30.445312 L 587.039062 717.976562 L 297.203125 779.300781 Z M 151.730469 91.773438 " clip-rule="nonzero"/></clipPath><clipPath id="8014ab8a1d"><path d="M 196 177 L 570 177 L 570 762 L 196 762 Z M 196 177 " clip-rule="nonzero"/></clipPath><clipPath id="45c7184c39"><path d="M 151.730469 91.773438 L 441.5625 30.445312 L 587.039062 717.976562 L 297.203125 779.300781 Z M 151.730469 91.773438 " clip-rule="nonzero"/></clipPath><clipPath id="293417e01a"><path d="M 151.730469 91.773438 L 441.5625 30.445312 L 587.039062 717.976562 L 297.203125 779.300781 Z M 151.730469 91.773438 " clip-rule="nonzero"/></clipPath><clipPath id="4ac70931bc"><path d="M 204 185 L 562 185 L 562 755 L 204 755 Z M 204 185 " clip-rule="nonzero"/></clipPath><clipPath id="a2b75473cd"><path d="M 151.730469 91.773438 L 441.5625 30.445312 L 587.039062 717.976562 L 297.203125 779.300781 Z M 151.730469 91.773438 " clip-rule="nonzero"/></clipPath><clipPath id="1e4048690c"><path d="M 151.730469 91.773438 L 441.5625 30.445312 L 587.039062 717.976562 L 297.203125 779.300781 Z M 151.730469 91.773438 " clip-rule="nonzero"/></clipPath><clipPath id="f63d22c0b4"><path d="M 217 198 L 549 198 L 549 742 L 217 742 Z M 217 198 " clip-rule="nonzero"/></clipPath><clipPath id="e1ced4a8a9"><path d="M 151.730469 91.773438 L 441.5625 30.445312 L 587.039062 717.976562 L 297.203125 779.300781 Z M 151.730469 91.773438 " clip-rule="nonzero"/></clipPath><clipPath id="2e70968700"><path d="M 151.730469 91.773438 L 441.5625 30.445312 L 587.039062 717.976562 L 297.203125 779.300781 Z M 151.730469 91.773438 " clip-rule="nonzero"/></clipPath><clipPath id="8407c20c9a"><path d="M 281 197 L 374 197 L 374 227 L 281 227 Z M 281 197 " clip-rule="nonzero"/></clipPath><clipPath id="762f6c8229"><path d="M 151.730469 91.773438 L 441.5625 30.445312 L 587.039062 717.976562 L 297.203125 779.300781 Z M 151.730469 91.773438 " clip-rule="nonzero"/></clipPath><clipPath id="df8da789fc"><path d="M 151.730469 91.773438 L 441.5625 30.445312 L 587.039062 717.976562 L 297.203125 779.300781 Z M 151.730469 91.773438 " clip-rule="nonzero"/></clipPath><clipPath id="90885ae86a"><path d="M 411 337 L 430 337 L 430 445 L 411 445 Z M 411 337 " clip-rule="nonzero"/></clipPath><clipPath id="079d3a4081"><path d="M 151.730469 91.773438 L 441.5625 30.445312 L 587.039062 717.976562 L 297.203125 779.300781 Z M 151.730469 91.773438 " clip-rule="nonzero"/></clipPath><clipPath id="6470abfc09"><path d="M 151.730469 91.773438 L 441.5625 30.445312 L 587.039062 717.976562 L 297.203125 779.300781 Z M 151.730469 91.773438 " clip-rule="nonzero"/></clipPath><clipPath id="83619f8651"><path d="M 284 417 L 486 417 L 486 553 L 284 553 Z M 284 417 " clip-rule="nonzero"/></clipPath><clipPath id="c51a114775"><path d="M 151.730469 91.773438 L 441.5625 30.445312 L 587.039062 717.976562 L 297.203125 779.300781 Z M 151.730469 91.773438 " clip-rule="nonzero"/></clipPath><clipPath id="eb7b84c834"><path d="M 151.730469 91.773438 L 441.5625 30.445312 L 587.039062 717.976562 L 297.203125 779.300781 Z M 151.730469 91.773438 " clip-rule="nonzero"/></clipPath><clipPath id="249d079742"><path d="M 289 417 L 486 417 L 486 496 L 289 496 Z M 289 417 " clip-rule="nonzero"/></clipPath><clipPath id="13c739a2e1"><path d="M 151.730469 91.773438 L 441.5625 30.445312 L 587.039062 717.976562 L 297.203125 779.300781 Z M 151.730469 91.773438 " clip-rule="nonzero"/></clipPath><clipPath id="c4077d4f88"><path d="M 151.730469 91.773438 L 441.5625 30.445312 L 587.039062 717.976562 L 297.203125 779.300781 Z M 151.730469 91.773438 " clip-rule="nonzero"/></clipPath><clipPath id="6f19987a76"><path d="M 290.714844 417.824219 L 486.125 428.246094 L 479.4375 553.625 L 284.03125 543.203125 Z M 290.714844 417.824219 " clip-rule="nonzero"/></clipPath><clipPath id="d1eebf47d8"><path d="M 485.867188 428.304688 L 290.765625 417.898438 L 284.757812 530.550781 C 284.386719 537.453125 289.691406 543.355469 296.59375 543.722656 L 466.6875 552.792969 C 473.589844 553.164062 479.488281 547.859375 479.859375 540.957031 Z M 485.867188 428.304688 " clip-rule="evenodd"/></clipPath><clipPath id="aceb781023"><path d="M 381 437 L 428 437 L 428 482 L 381 482 Z M 381 437 " clip-rule="nonzero"/></clipPath><clipPath id="1e4c44b96e"><path d="M 151.730469 91.773438 L 441.5625 30.445312 L 587.039062 717.976562 L 297.203125 779.300781 Z M 151.730469 91.773438 " clip-rule="nonzero"/></clipPath><clipPath id="37f12c00e6"><path d="M 151.730469 91.773438 L 441.5625 30.445312 L 587.039062 717.976562 L 297.203125 779.300781 Z M 151.730469 91.773438 " clip-rule="nonzero"/></clipPath><clipPath id="217dd2f792"><path d="M 359 372 L 405 372 L 405 467 L 359 467 Z M 359 372 " clip-rule="nonzero"/></clipPath><clipPath id="e4072997b6"><path d="M 151.730469 91.773438 L 441.5625 30.445312 L 587.039062 717.976562 L 297.203125 779.300781 Z M 151.730469 91.773438 " clip-rule="nonzero"/></clipPath><clipPath id="5cd0eafe90"><path d="M 151.730469 91.773438 L 441.5625 30.445312 L 587.039062 717.976562 L 297.203125 779.300781 Z M 151.730469 91.773438 " clip-rule="nonzero"/></clipPath><clipPath id="00a2303674"><path d="M 345 373 L 376 373 L 376 414 L 345 414 Z M 345 373 " clip-rule="nonzero"/></clipPath><clipPath id="733c95a26a"><path d="M 151.730469 91.773438 L 441.5625 30.445312 L 587.039062 717.976562 L 297.203125 779.300781 Z M 151.730469 91.773438 " clip-rule="nonzero"/></clipPath><clipPath id="225f6255ba"><path d="M 151.730469 91.773438 L 441.5625 30.445312 L 587.039062 717.976562 L 297.203125 779.300781 Z M 151.730469 91.773438 " clip-rule="nonzero"/></clipPath><clipPath id="fe37b46d82"><path d="M 410 311 L 445 311 L 445 346 L 410 346 Z M 410 311 " clip-rule="nonzero"/></clipPath><clipPath id="1269d16026"><path d="M 151.730469 91.773438 L 441.5625 30.445312 L 587.039062 717.976562 L 297.203125 779.300781 Z M 151.730469 91.773438 " clip-rule="nonzero"/></clipPath><clipPath id="ac529adad4"><path d="M 151.730469 91.773438 L 441.5625 30.445312 L 587.039062 717.976562 L 297.203125 779.300781 Z M 151.730469 91.773438 " clip-rule="nonzero"/></clipPath><clipPath id="89083d2f7f"><path d="M 239 72 L 458 72 L 458 327 L 239 327 Z M 239 72 " clip-rule="nonzero"/></clipPath><clipPath id="385314feea"><path d="M 151.730469 91.773438 L 441.5625 30.445312 L 587.039062 717.976562 L 297.203125 779.300781 Z M 151.730469 91.773438 " clip-rule="nonzero"/></clipPath><clipPath id="ab5b2cf7c6"><path d="M 151.730469 91.773438 L 441.5625 30.445312 L 587.039062 717.976562 L 297.203125 779.300781 Z M 151.730469 91.773438 " clip-rule="nonzero"/></clipPath></defs><g clip-path="url(#92d252d12d)"><g clip-path="url(#e6587e7f91)"><g clip-path="url(#8fced54e00)"><path fill="#1a2634" d="M 484.113281 232.78125 C 475.664062 192.84375 436.375 167.277344 396.4375 175.730469 L 251.707031 206.351562 C 211.765625 214.804688 186.203125 254.089844 194.65625 294.03125 L 282.058594 707.113281 C 290.511719 747.054688 329.796875 772.621094 369.738281 764.167969 L 514.464844 733.542969 C 554.40625 725.09375 579.96875 685.808594 571.519531 645.867188 Z M 484.113281 232.78125 " fill-opacity="1" fill-rule="evenodd"/></g></g></g><g clip-path="url(#8014ab8a1d)"><g clip-path="url(#45c7184c39)"><g clip-path="url(#293417e01a)"><path fill="#cfcfcf" d="M 480.324219 233.585938 L 567.730469 646.667969 C 575.738281 684.519531 551.515625 721.746094 513.664062 729.757812 L 368.933594 760.378906 C 331.085938 768.386719 293.855469 744.164062 285.847656 706.3125 L 198.441406 293.230469 C 190.433594 255.378906 214.660156 218.148438 252.507812 210.140625 L 397.238281 179.515625 C 435.089844 171.507812 472.316406 195.734375 480.324219 233.585938 Z M 480.324219 233.585938 " fill-opacity="1" fill-rule="evenodd"/></g></g></g><g clip-path="url(#4ac70931bc)"><g clip-path="url(#a2b75473cd)"><g clip-path="url(#1e4048690c)"><path fill="#1a2634" d="M 473.183594 235.09375 L 560.589844 648.179688 C 567.765625 682.085938 546.0625 715.441406 512.152344 722.617188 L 367.425781 753.238281 C 333.515625 760.414062 300.164062 738.710938 292.988281 704.800781 L 205.582031 291.71875 C 198.410156 257.808594 220.113281 224.457031 254.019531 217.28125 L 398.75 186.660156 C 432.65625 179.484375 466.011719 201.1875 473.183594 235.09375 Z M 473.183594 235.09375 " fill-opacity="1" fill-rule="evenodd"/></g></g></g><g clip-path="url(#f63d22c0b4)"><g clip-path="url(#e1ced4a8a9)"><g clip-path="url(#2e70968700)"><path fill="#ffffff" d="M 460.425781 237.796875 L 547.832031 650.878906 C 553.515625 677.746094 536.320312 704.171875 509.453125 709.859375 L 364.722656 740.480469 C 337.859375 746.164062 311.433594 728.96875 305.75 702.101562 L 218.34375 289.019531 C 212.65625 262.152344 229.855469 235.726562 256.71875 230.042969 L 401.449219 199.417969 C 428.3125 193.734375 454.742188 210.929688 460.425781 237.796875 Z M 460.425781 237.796875 " fill-opacity="1" fill-rule="evenodd"/></g></g></g><g clip-path="url(#8407c20c9a)"><g clip-path="url(#762f6c8229)"><g clip-path="url(#df8da789fc)"><path fill="#1a2634" d="M 372.824219 197.210938 C 373.402344 198.441406 373.886719 199.660156 373.894531 200.949219 C 373.910156 203.75 374.402344 208.683594 371.09375 209.492188 C 341.378906 216.738281 306.617188 222.847656 288.730469 226.917969 C 285.605469 227.628906 283.652344 222.582031 282.496094 220.023438 C 281.988281 218.898438 281.910156 217.691406 281.929688 216.441406 Z M 372.824219 197.210938 " fill-opacity="1" fill-rule="evenodd"/></g></g></g><g clip-path="url(#90885ae86a)"><g clip-path="url(#079d3a4081)"><g clip-path="url(#6470abfc09)"><path stroke-linecap="round" transform="matrix(0.248949, -0.0510681, 0.0661472, 0.214388, 147.829566, 369.838391)" fill="none" stroke-linejoin="round" d="M 1076.633103 127.482227 L 932.872226 547.710804 " stroke="#282828" stroke-width="39.82" stroke-opacity="1" stroke-miterlimit="1.5"/></g></g></g><g clip-path="url(#83619f8651)"><g clip-path="url(#c51a114775)"><g clip-path="url(#eb7b84c834)"><path fill="#548ce9" d="M 485.867188 428.304688 L 290.765625 417.898438 L 284.757812 530.550781 C 284.386719 537.453125 289.691406 543.355469 296.59375 543.722656 L 466.6875 552.792969 C 473.589844 553.164062 479.488281 547.859375 479.859375 540.957031 Z M 485.867188 428.304688 " fill-opacity="1" fill-rule="evenodd"/></g></g></g><g clip-path="url(#249d079742)"><g clip-path="url(#13c739a2e1)"><g clip-path="url(#c4077d4f88)"><g clip-path="url(#6f19987a76)"><g clip-path="url(#d1eebf47d8)"><path fill="#a4f6e1" d="M 378.597656 493.585938 L 293.238281 424.714844 C 289.808594 421.945312 288.554688 417.285156 290.132812 413.167969 C 291.710938 409.050781 295.761719 406.421875 300.164062 406.65625 L 477.714844 416.128906 C 482.117188 416.363281 485.867188 419.40625 486.996094 423.667969 C 488.128906 427.929688 486.386719 432.429688 482.679688 434.820312 L 390.480469 494.21875 C 386.796875 496.59375 382.007812 496.339844 378.597656 493.585938 Z M 378.597656 493.585938 " fill-opacity="1" fill-rule="evenodd"/></g></g></g></g></g><g clip-path="url(#aceb781023)"><g clip-path="url(#1e4c44b96e)"><g clip-path="url(#37f12c00e6)"><path fill="#cfcfcf" d="M 411.929688 437.25 L 411.386719 449.148438 L 418.734375 446.8125 L 415.628906 453.871094 L 427.515625 454.597656 L 416.945312 460.078125 L 422.636719 465.273438 L 414.976562 466.113281 L 420.289062 476.773438 L 410.257812 470.355469 L 408.605469 477.886719 L 404.046875 471.667969 L 397.472656 481.601562 L 398.011719 469.703125 L 390.664062 472.039062 L 393.769531 464.980469 L 381.878906 464.253906 L 392.453125 458.773438 L 386.757812 453.578125 L 394.421875 452.738281 L 389.109375 442.078125 L 399.144531 448.496094 L 400.792969 440.964844 L 405.351562 447.183594 Z M 411.929688 437.25 " fill-opacity="1" fill-rule="evenodd"/></g></g></g><g clip-path="url(#217dd2f792)"><g clip-path="url(#e4072997b6)"><g clip-path="url(#5cd0eafe90)"><path stroke-linecap="round" transform="matrix(-0.122655, -0.135632, -0.103742, 0.17407, 509.634002, 401.935841)" fill="none" stroke-linejoin="round" d="M 373.610636 619.741571 C 491.226491 730.213532 607.463106 735.531013 717.282732 524.434994 C 727.378556 505.08096 743.323044 480.65706 752.292741 456.722858 " stroke="#282828" stroke-width="61.540001" stroke-opacity="1" stroke-miterlimit="1.5"/></g></g></g><g clip-path="url(#00a2303674)"><g clip-path="url(#733c95a26a)"><g clip-path="url(#225f6255ba)"><path stroke-linecap="round" transform="matrix(0.268796, -0.177416, 0.095224, 0.263442, 192.912327, 307.254936)" fill="none" stroke-linejoin="round" d="M 366.288403 628.798995 L 453.524427 579.291009 " stroke="#282828" stroke-width="37.779999" stroke-opacity="1" stroke-miterlimit="1.5"/></g></g></g><g clip-path="url(#fe37b46d82)"><g clip-path="url(#1269d16026)"><g clip-path="url(#ac529adad4)"><path fill="#1a2634" d="M 423.773438 311.503906 C 433.042969 309.542969 442.164062 315.476562 444.125 324.75 C 446.089844 334.019531 440.152344 343.140625 430.882812 345.105469 C 421.609375 347.066406 412.488281 341.128906 410.527344 331.859375 C 408.566406 322.585938 414.5 313.464844 423.773438 311.503906 Z M 425.550781 319.902344 C 430.183594 318.921875 434.746094 321.890625 435.726562 326.527344 C 436.707031 331.164062 433.738281 335.722656 429.105469 336.703125 C 424.46875 337.683594 419.90625 334.71875 418.925781 330.082031 C 417.945312 325.445312 420.914062 320.886719 425.550781 319.902344 Z M 425.550781 319.902344 " fill-opacity="1" fill-rule="evenodd"/></g></g></g><g clip-path="url(#89083d2f7f)"><g clip-path="url(#385314feea)"><g clip-path="url(#ab5b2cf7c6)"><path stroke-linecap="round" transform="matrix(0.252236, -0.053371, 0.053371, 0.252236, -64.489709, 78.066798)" fill="none" stroke-linejoin="round" d="M 1171.287193 242.892943 C 1220.141011 663.328353 1355.829156 511.187348 1704.999989 534.552007 C 2110.653525 561.706548 1761.153028 1032.911353 1671.699756 1322.614494 " stroke="#cfcfcf" stroke-width="32.700001" stroke-opacity="1" stroke-miterlimit="1.5"/></g></g></g></svg>