<?xml version="1.0" standalone="no"?>
<!DOCTYPE svg PUBLIC "-//W3C//DTD SVG 20010904//EN"
 "http://www.w3.org/TR/2001/REC-SVG-20010904/DTD/svg10.dtd">
<svg version="1.0" xmlns="http://www.w3.org/2000/svg"
 width="1920.000000pt" height="1371.000000pt" viewBox="0 0 1920.000000 1371.000000"
 preserveAspectRatio="xMidYMid meet">

<g transform="translate(0.000000,1371.000000) scale(0.100000,-0.100000)"
fill="#000000" stroke="none">
<path d="M6748 10267 c-149 -56 -260 -176 -333 -360 -34 -88 -69 -223 -81
-313 -5 -42 -14 -61 -49 -98 -34 -37 -48 -46 -76 -46 -143 -1 -421 -135 -501
-242 -90 -121 -121 -203 -199 -533 -33 -137 -81 -313 -108 -390 -27 -77 -68
-192 -90 -255 -63 -181 -71 -264 -40 -444 13 -76 50 -148 88 -176 17 -11 57
-25 90 -31 51 -8 168 -36 273 -66 l28 -8 4 -160 c3 -128 12 -210 46 -415 42
-247 43 -262 43 -475 0 -121 -5 -254 -10 -295 -9 -72 -9 -77 17 -121 22 -36
29 -63 34 -135 21 -282 85 -343 345 -331 180 8 253 39 237 102 -3 12 -34 65
-68 116 -84 126 -104 182 -70 191 40 11 42 191 7 508 -37 330 -54 540 -62 766
l-6 200 299 13 c164 7 405 18 534 26 129 7 236 12 238 11 1 -2 -2 -76 -7 -165
-10 -177 -3 -295 29 -521 16 -118 34 -398 33 -535 0 -16 -8 -66 -18 -110 -24
-108 -17 -215 15 -250 23 -24 28 -25 159 -25 163 0 255 -12 324 -43 45 -19 69
-22 172 -22 207 1 287 33 282 115 -1 21 -5 36 -8 34 -8 -4 -51 41 -45 47 3 3
-3 5 -12 6 -69 7 -170 22 -184 28 -10 4 -15 11 -12 16 3 5 -2 6 -10 3 -9 -4
-43 22 -94 70 -79 76 -80 77 -71 114 17 75 4 557 -22 758 -9 71 -8 136 2 290
29 420 5 598 -94 706 l-33 36 -92 0 c-70 -1 -97 3 -117 16 -25 16 -27 16 -62
-5 l-36 -23 6 49 c4 26 7 54 7 61 0 10 16 14 60 14 l60 0 0 45 c0 40 5 50 35
76 37 33 56 81 48 122 -4 22 0 28 33 42 21 8 44 13 51 10 8 -2 11 -1 8 4 -7
13 28 23 51 15 13 -4 15 -3 6 3 -9 7 29 26 127 64 98 37 141 59 141 70 0 18
192 85 211 73 7 -4 9 -3 6 2 -8 14 668 237 696 229 14 -4 17 -3 10 2 -15 11
-36 3 347 127 1026 331 1761 544 2535 737 553 138 1370 323 1397 316 10 -3 16
-2 13 3 -2 4 12 10 33 14 99 17 295 46 298 44 1 -2 9 -464 18 -1028 15 -1011
21 -1375 31 -1945 3 -159 10 -609 16 -1000 11 -698 14 -744 42 -716 7 7 3 414
-18 1601 -3 168 -10 616 -15 995 -5 380 -12 794 -15 920 -3 127 -8 445 -11
708 l-7 477 21 0 c11 0 27 3 36 6 22 9 20 51 -2 58 -39 13 -1123 -157 -1592
-249 -480 -95 -1006 -221 -1355 -326 -678 -205 -1290 -416 -2170 -749 -478
-181 -550 -207 -565 -207 -8 0 -116 -41 -240 -91 -167 -67 -236 -91 -268 -90
-27 0 -50 -6 -61 -16 -18 -16 -22 -16 -72 8 -29 15 -70 26 -91 26 l-38 0 31
-55 c33 -59 33 -85 -1 -85 -11 0 -34 -10 -51 -22 -26 -19 -47 -23 -147 -28
-126 -5 -118 -2 -109 -53 1 -5 -18 -17 -43 -26 -24 -10 -46 -23 -47 -28 -2 -5
5 -31 16 -56 24 -56 39 -53 -157 -31 l-143 17 83 34 c46 19 88 39 94 44 8 7 1
41 -26 122 -21 61 -41 126 -44 144 -7 30 -6 31 46 48 29 9 60 25 69 36 9 10
20 15 24 11 5 -4 5 -1 1 5 -4 7 -3 20 2 29 8 14 10 12 16 -10 9 -35 27 -34
175 9 66 19 127 35 134 35 15 0 159 -41 190 -55 14 -6 16 -4 10 11 -5 13 -3
15 7 9 9 -5 11 -4 6 4 -4 6 -11 9 -15 7 -12 -8 -85 150 -76 164 5 8 4 11 -3 6
-13 -8 -19 35 -26 180 -4 64 -14 126 -28 170 -12 38 -22 75 -21 82 0 7 -1 11
-4 8 -3 -3 -18 14 -33 37 -14 23 -43 56 -63 74 -24 21 -35 38 -31 48 3 8 11
12 17 8 5 -3 7 -1 3 5 -9 14 14 63 27 55 6 -3 7 -1 4 4 -9 15 21 85 33 78 5
-3 7 0 5 7 -3 8 12 52 33 98 52 111 89 215 97 272 5 35 2 56 -15 94 -38 85
-81 168 -96 185 -17 19 -18 33 -2 23 7 -4 8 -3 4 5 -4 6 -11 9 -15 7 -13 -9
-64 51 -56 65 5 8 4 10 -4 5 -7 -5 -29 8 -54 31 -92 85 -237 124 -329 90z
m6009 -433 c-3 -3 -12 -4 -19 -1 -8 3 -5 6 6 6 11 1 17 -2 13 -5z m-60 -10
c-3 -3 -12 -4 -19 -1 -8 3 -5 6 6 6 11 1 17 -2 13 -5z m-97 -20 c-132 -28
-929 -222 -1065 -259 -49 -13 -160 -43 -245 -65 -328 -87 -1051 -299 -1380
-405 -58 -18 -148 -47 -200 -63 -242 -76 -593 -190 -779 -253 -215 -72 -281
-87 -114 -26 54 19 185 67 292 106 107 40 201 69 208 67 8 -3 12 -2 9 3 -10
16 1043 377 1070 367 8 -3 13 -2 10 3 -6 9 -10 8 322 106 317 94 839 228 863
222 11 -3 17 -2 14 2 -6 11 492 116 875 184 147 27 225 33 120 11z m-5447 -87
c56 -2 58 -3 52 -27 -4 -14 -13 -59 -21 -100 -11 -60 -20 -80 -43 -100 -23
-20 -29 -36 -34 -82 -6 -64 -45 -128 -78 -128 -26 0 -66 -43 -89 -98 -49 -113
-55 -116 -156 -81 -35 12 -66 21 -68 18 -2 -2 -33 -62 -69 -134 l-66 -130 -2
125 c0 69 0 136 1 149 2 24 205 412 267 511 19 30 48 69 65 86 l29 31 77 -19
c42 -10 103 -19 135 -21z m337 -1672 c0 -8 -4 -15 -9 -15 -13 0 -22 16 -14 24
11 11 23 6 23 -9z m-450 -64 c0 -5 2 -15 5 -23 4 -10 -7 -12 -52 -9 l-58 3 45
19 c52 21 60 22 60 10z"/>
<path d="M7165 10110 c10 -11 20 -20 23 -20 3 0 -3 9 -13 20 -10 11 -20 20
-23 20 -3 0 3 -9 13 -20z"/>
<path d="M4898 7283 c7 -3 16 -2 19 1 4 3 -2 6 -13 5 -11 0 -14 -3 -6 -6z"/>
<path d="M4835 7270 c-13 -5 -14 -9 -5 -9 8 0 24 4 35 9 13 5 14 9 5 9 -8 0
-24 -4 -35 -9z"/>
<path d="M4758 7243 c7 -3 16 -2 19 1 4 3 -2 6 -13 5 -11 0 -14 -3 -6 -6z"/>
<path d="M3908 6933 c7 -3 16 -2 19 1 4 3 -2 6 -13 5 -11 0 -14 -3 -6 -6z"/>
<path d="M9080 6856 c0 -3 9 -10 20 -16 11 -6 20 -8 20 -6 0 3 -9 10 -20 16
-11 6 -20 8 -20 6z"/>
<path d="M3605 6780 c-3 -6 1 -7 9 -4 18 7 21 14 7 14 -6 0 -13 -4 -16 -10z"/>
<path d="M3525 6740 c-3 -6 1 -7 9 -4 18 7 21 14 7 14 -6 0 -13 -4 -16 -10z"/>
<path d="M14977 6723 c-14 -13 -6 -33 13 -33 22 0 23 1 14 24 -7 17 -16 20
-27 9z"/>
<path d="M3415 6680 c-3 -6 1 -7 9 -4 18 7 21 14 7 14 -6 0 -13 -4 -16 -10z"/>
<path d="M3374 6654 c-18 -14 -18 -15 4 -4 12 6 22 13 22 15 0 8 -5 6 -26 -11z"/>
<path d="M9587 6569 c7 -7 15 -10 18 -7 3 3 -2 9 -12 12 -14 6 -15 5 -6 -5z"/>
<path d="M3203 6553 c0 -8 6 -9 19 -2 10 5 18 11 18 12 0 2 -8 3 -18 3 -10 0
-19 -6 -19 -13z"/>
<path d="M3155 6520 c-3 -6 1 -7 9 -4 18 7 21 14 7 14 -6 0 -13 -4 -16 -10z"/>
<path d="M9720 6486 c0 -2 8 -10 18 -17 15 -13 16 -12 3 4 -13 16 -21 21 -21
13z"/>
<path d="M3074 6464 c-18 -14 -18 -15 4 -4 12 6 22 13 22 15 0 8 -5 6 -26 -11z"/>
<path d="M6688 6463 c6 -2 18 -2 25 0 6 3 1 5 -13 5 -14 0 -19 -2 -12 -5z"/>
<path d="M6848 6453 c6 -2 18 -2 25 0 6 3 1 5 -13 5 -14 0 -19 -2 -12 -5z"/>
<path d="M7028 6433 c7 -3 16 -2 19 1 4 3 -2 6 -13 5 -11 0 -14 -3 -6 -6z"/>
<path d="M7108 6423 c7 -3 16 -2 19 1 4 3 -2 6 -13 5 -11 0 -14 -3 -6 -6z"/>
<path d="M5638 6413 c7 -3 16 -2 19 1 4 3 -2 6 -13 5 -11 0 -14 -3 -6 -6z"/>
<path d="M7168 6413 c6 -2 18 -2 25 0 6 3 1 5 -13 5 -14 0 -19 -2 -12 -5z"/>
<path d="M7298 6393 c7 -3 16 -2 19 1 4 3 -2 6 -13 5 -11 0 -14 -3 -6 -6z"/>
<path d="M7348 6383 c7 -3 16 -2 19 1 4 3 -2 6 -13 5 -11 0 -14 -3 -6 -6z"/>
<path d="M2929 6363 c-13 -16 -12 -17 4 -4 16 13 21 21 13 21 -2 0 -10 -8 -17
-17z"/>
<path d="M5368 6363 c7 -3 16 -2 19 1 4 3 -2 6 -13 5 -11 0 -14 -3 -6 -6z"/>
<path d="M9900 6366 c0 -2 8 -10 18 -17 15 -13 16 -12 3 4 -13 16 -21 21 -21
13z"/>
<path d="M5318 6353 c7 -3 16 -2 19 1 4 3 -2 6 -13 5 -11 0 -14 -3 -6 -6z"/>
<path d="M10001 6288 c2 -2 18 -14 34 -28 l30 -25 -24 28 c-14 15 -29 27 -34
27 -6 0 -8 -1 -6 -2z"/>
<path d="M8040 6200 c8 -5 20 -10 25 -10 6 0 3 5 -5 10 -8 5 -19 10 -25 10 -5
0 -3 -5 5 -10z"/>
<path d="M10210 6126 c0 -2 8 -10 18 -17 15 -13 16 -12 3 4 -13 16 -21 21 -21
13z"/>
<path d="M2545 6070 c3 -5 3 -10 -2 -10 -4 0 -24 -14 -43 -31 l-35 -31 47 33
c26 17 45 36 42 40 -3 5 -7 9 -10 9 -3 0 -2 -4 1 -10z"/>
<path d="M10300 6046 c0 -2 8 -10 18 -17 15 -13 16 -12 3 4 -13 16 -21 21 -21
13z"/>
<path d="M4270 6000 c-9 -6 -10 -10 -3 -10 6 0 15 5 18 10 8 12 4 12 -15 0z"/>
<path d="M10360 5992 c0 -4 10 -13 23 -21 22 -14 22 -14 3 8 -20 22 -26 25
-26 13z"/>
<path d="M2344 5888 l-29 -33 33 29 c30 28 37 36 29 36 -2 0 -16 -15 -33 -32z"/>
<path d="M8882 5824 c10 -10 20 -16 22 -13 3 3 -5 11 -17 18 -21 13 -21 12 -5
-5z"/>
<path d="M10576 5795 c4 -8 11 -15 16 -15 6 0 5 6 -2 15 -7 8 -14 15 -16 15
-2 0 -1 -7 2 -15z"/>
<path d="M10630 5746 c0 -2 8 -10 18 -17 15 -13 16 -12 3 4 -13 16 -21 21 -21
13z"/>
<path d="M6563 5733 c20 -2 54 -2 75 0 20 2 3 4 -38 4 -41 0 -58 -2 -37 -4z"/>
<path d="M6763 5723 c15 -2 37 -2 50 0 12 2 0 4 -28 4 -27 0 -38 -2 -22 -4z"/>
<path d="M6873 5713 c9 -2 23 -2 30 0 6 3 -1 5 -18 5 -16 0 -22 -2 -12 -5z"/>
<path d="M2135 5684 c-9 -15 -12 -23 -6 -20 11 7 35 46 28 46 -3 0 -12 -12
-22 -26z"/>
<path d="M5848 5703 c7 -3 16 -2 19 1 4 3 -2 6 -13 5 -11 0 -14 -3 -6 -6z"/>
<path d="M6958 5703 c7 -3 16 -2 19 1 4 3 -2 6 -13 5 -11 0 -14 -3 -6 -6z"/>
<path d="M5753 5693 c9 -2 23 -2 30 0 6 3 -1 5 -18 5 -16 0 -22 -2 -12 -5z"/>
<path d="M7048 5693 c6 -2 18 -2 25 0 6 3 1 5 -13 5 -14 0 -19 -2 -12 -5z"/>
<path d="M5628 5673 c6 -2 18 -2 25 0 6 3 1 5 -13 5 -14 0 -19 -2 -12 -5z"/>
<path d="M7228 5663 c6 -2 18 -2 25 0 6 3 1 5 -13 5 -14 0 -19 -2 -12 -5z"/>
<path d="M5528 5653 c7 -3 16 -2 19 1 4 3 -2 6 -13 5 -11 0 -14 -3 -6 -6z"/>
<path d="M5478 5643 c7 -3 16 -2 19 1 4 3 -2 6 -13 5 -11 0 -14 -3 -6 -6z"/>
<path d="M7338 5643 c6 -2 18 -2 25 0 6 3 1 5 -13 5 -14 0 -19 -2 -12 -5z"/>
<path d="M5348 5613 c7 -3 16 -2 19 1 4 3 -2 6 -13 5 -11 0 -14 -3 -6 -6z"/>
<path d="M7508 5603 c7 -3 16 -2 19 1 4 3 -2 6 -13 5 -11 0 -14 -3 -6 -6z"/>
<path d="M2065 5569 c-4 -6 -5 -12 -2 -15 2 -3 7 2 10 11 7 17 1 20 -8 4z"/>
<path d="M3494 5538 l-19 -23 23 19 c21 18 27 26 19 26 -2 0 -12 -10 -23 -22z"/>
<path d="M7820 5516 c0 -2 7 -7 16 -10 8 -3 12 -2 9 4 -6 10 -25 14 -25 6z"/>
<path d="M9370 5516 c0 -2 8 -10 18 -17 15 -13 16 -12 3 4 -13 16 -21 21 -21
13z"/>
<path d="M4945 5500 c-13 -6 -15 -9 -5 -9 8 0 22 4 30 9 18 12 2 12 -25 0z"/>
<path d="M3419 5483 c-13 -16 -12 -17 4 -4 16 13 21 21 13 21 -2 0 -10 -8 -17
-17z"/>
<path d="M3314 5408 l-19 -23 23 19 c12 11 22 21 22 23 0 8 -8 2 -26 -19z"/>
<path d="M8100 5410 c8 -5 20 -10 25 -10 6 0 3 5 -5 10 -8 5 -19 10 -25 10 -5
0 -3 -5 5 -10z"/>
<path d="M8200 5370 c8 -5 20 -10 25 -10 6 0 3 5 -5 10 -8 5 -19 10 -25 10 -5
0 -3 -5 5 -10z"/>
<path d="M4574 5354 c-18 -14 -18 -14 6 -3 31 14 36 19 24 19 -6 0 -19 -7 -30
-16z"/>
<path d="M9570 5356 c0 -2 7 -7 16 -10 8 -3 12 -2 9 4 -6 10 -25 14 -25 6z"/>
<path d="M9600 5328 c0 -2 9 -11 20 -21 11 -9 20 -13 20 -7 0 5 -9 14 -20 20
-11 6 -20 9 -20 8z"/>
<path d="M4485 5310 c-3 -6 1 -7 9 -4 18 7 21 14 7 14 -6 0 -13 -4 -16 -10z"/>
<path d="M4364 5262 c3 -5 0 -13 -6 -15 -9 -4 -10 -6 -1 -6 17 -1 25 16 12 25
-7 4 -9 3 -5 -4z"/>
<path d="M2041 5224 c0 -11 3 -14 6 -6 3 7 2 16 -1 19 -3 4 -6 -2 -5 -13z"/>
<path d="M4320 5230 c-9 -6 -10 -10 -3 -10 6 0 15 5 18 10 8 12 4 12 -15 0z"/>
<path d="M8510 5226 c0 -3 9 -10 20 -16 11 -6 20 -8 20 -6 0 3 -9 10 -20 16
-11 6 -20 8 -20 6z"/>
<path d="M9744 5200 c0 -13 4 -16 10 -10 7 7 7 13 0 20 -6 6 -10 3 -10 -10z"/>
<path d="M3024 5158 l-19 -23 23 19 c21 18 27 26 19 26 -2 0 -12 -10 -23 -22z"/>
<path d="M4198 5164 c-38 -20 -36 -28 2 -9 17 9 30 18 30 20 0 7 -1 6 -32 -11z"/>
<path d="M11187 5130 c-27 -10 -54 -23 -61 -29 -7 -6 -17 -7 -21 -3 -5 4 -4 1
0 -7 6 -11 4 -13 -9 -8 -10 4 -15 3 -11 -3 3 -5 -4 -20 -16 -32 -12 -13 -33
-48 -48 -78 l-26 -55 0 -1400 0 -1400 28 -57 c32 -65 89 -121 156 -152 l46
-21 2355 0 2355 0 46 21 c60 28 125 93 153 153 l21 46 0 1410 0 1410 -28 57
c-15 31 -45 72 -66 91 -22 20 -36 39 -33 43 4 4 2 4 -4 1 -6 -4 -27 1 -45 11
-30 15 -77 17 -425 20 l-392 3 -6 -648 c-9 -991 -12 -1096 -29 -1129 -23 -44
-58 -73 -100 -81 -35 -8 -740 -2 -1963 14 l-551 8 -37 29 c-72 54 -69 11 -57
866 6 421 11 805 11 853 l0 87 -597 0 c-561 -1 -601 -2 -646 -20z"/>
<path d="M8720 5103 c0 -1 8 -7 18 -12 13 -7 19 -6 19 2 0 7 -9 13 -19 13 -10
0 -18 -1 -18 -3z"/>
<path d="M9881 5083 c7 -12 15 -20 18 -17 3 2 -3 12 -13 22 -17 16 -18 16 -5
-5z"/>
<path d="M10699 5063 c-13 -16 -12 -17 4 -4 9 7 17 15 17 17 0 8 -8 3 -21 -13z"/>
<path d="M2869 5013 c-13 -16 -12 -17 4 -4 9 7 17 15 17 17 0 8 -8 3 -21 -13z"/>
<path d="M14222 5011 c-72 -25 -122 -67 -156 -134 -24 -46 -29 -69 -29 -125 0
-115 51 -200 150 -249 73 -35 164 -37 237 -5 l49 22 -26 20 c-14 11 -31 20
-38 20 -7 0 -10 3 -7 6 4 3 -5 30 -18 59 -46 99 -29 230 39 302 16 17 26 36
23 42 -5 7 0 9 11 5 13 -4 11 0 -6 14 -24 19 -110 42 -155 42 -12 -1 -45 -9
-74 -19z m130 -198 c-3 -16 -7 -22 -10 -15 -4 13 4 42 11 42 2 0 2 -12 -1 -27z"/>
<path d="M13673 4950 c-29 -37 -49 -70 -46 -74 4 -3 30 -6 60 -6 49 0 53 -2
53 -24 0 -55 12 -87 32 -84 10 2 19 6 19 11 1 16 -53 232 -59 238 -4 4 -30
-24 -59 -61z"/>
<path d="M8890 5006 c0 -2 8 -10 18 -17 15 -13 16 -12 3 4 -13 16 -21 21 -21
13z"/>
<path d="M2267 4929 c7 -7 15 -10 18 -7 3 3 -2 9 -12 12 -14 6 -15 5 -6 -5z"/>
<path d="M3809 4913 c-13 -17 -13 -17 6 -3 11 8 22 16 24 17 2 2 0 3 -6 3 -6
0 -17 -8 -24 -17z"/>
<path d="M9070 4876 c0 -2 8 -10 18 -17 15 -13 16 -12 3 4 -13 16 -21 21 -21
13z"/>
<path d="M2508 4863 c7 -3 16 -2 19 1 4 3 -2 6 -13 5 -11 0 -14 -3 -6 -6z"/>
<path d="M10308 4863 c7 -3 16 -2 19 1 4 3 -2 6 -13 5 -11 0 -14 -3 -6 -6z"/>
<path d="M3650 4801 c0 -7 -4 -10 -8 -7 -5 3 -9 -2 -9 -10 0 -13 2 -13 16 0 8
9 12 19 8 22 -4 4 -7 2 -7 -5z"/>
<path d="M6248 4733 c6 -2 18 -2 25 0 6 3 1 5 -13 5 -14 0 -19 -2 -12 -5z"/>
<path d="M9315 4691 c-3 -5 -2 -12 3 -15 5 -3 9 1 9 9 0 17 -3 19 -12 6z"/>
<path d="M3475 4659 c-11 -16 -1 -19 13 -3 7 8 8 14 3 14 -5 0 -13 -5 -16 -11z"/>
<path d="M9390 4616 c0 -2 8 -10 18 -17 15 -13 16 -12 3 4 -13 16 -21 21 -21
13z"/>
<path d="M3352 4565 c4 -4 3 -14 -4 -22 -6 -7 -9 -15 -7 -18 3 -2 10 4 17 15
9 15 9 21 -1 26 -6 4 -9 4 -5 -1z"/>
<path d="M7548 4543 c7 -3 16 -2 19 1 4 3 -2 6 -13 5 -11 0 -14 -3 -6 -6z"/>
<path d="M9505 4512 c36 -39 61 -59 36 -29 -6 8 -9 17 -6 20 3 4 2 5 -2 2 -4
-3 -20 7 -37 22 -18 17 -15 10 9 -15z"/>
<path d="M3304 4498 l-19 -23 23 19 c21 18 27 26 19 26 -2 0 -12 -10 -23 -22z"/>
<path d="M3209 4403 l-24 -28 28 24 c25 23 32 31 24 31 -2 0 -14 -12 -28 -27z"/>
<path d="M4920 4410 c-9 -6 -10 -10 -3 -10 6 0 15 5 18 10 8 12 4 12 -15 0z"/>
<path d="M4835 4370 c-3 -6 1 -7 9 -4 18 7 21 14 7 14 -6 0 -13 -4 -16 -10z"/>
<path d="M4590 4240 c-8 -5 -10 -10 -5 -10 6 0 17 5 25 10 8 5 11 10 5 10 -5
0 -17 -5 -25 -10z"/>
<path d="M4455 4150 c-3 -6 1 -7 9 -4 18 7 21 14 7 14 -6 0 -13 -4 -16 -10z"/>
<path d="M9741 4144 c0 -11 3 -14 6 -6 3 7 2 16 -1 19 -3 4 -6 -2 -5 -13z"/>
<path d="M8407 4119 c7 -7 15 -10 18 -7 3 3 -2 9 -12 12 -14 6 -15 5 -6 -5z"/>
<path d="M6233 3963 c15 -2 37 -2 50 0 12 2 0 4 -28 4 -27 0 -38 -2 -22 -4z"/>
<path d="M6508 3963 c18 -2 45 -2 60 0 15 2 0 4 -33 4 -33 0 -45 -2 -27 -4z"/>
<path d="M6113 3953 c9 -2 25 -2 35 0 9 3 1 5 -18 5 -19 0 -27 -2 -17 -5z"/>
<path d="M6683 3953 c9 -2 23 -2 30 0 6 3 -1 5 -18 5 -16 0 -22 -2 -12 -5z"/>
<path d="M6038 3943 c7 -3 16 -2 19 1 4 3 -2 6 -13 5 -11 0 -14 -3 -6 -6z"/>
<path d="M6778 3943 c7 -3 16 -2 19 1 4 3 -2 6 -13 5 -11 0 -14 -3 -6 -6z"/>
<path d="M5978 3933 c7 -3 16 -2 19 1 4 3 -2 6 -13 5 -11 0 -14 -3 -6 -6z"/>
<path d="M8657 3929 c7 -7 15 -10 18 -7 3 3 -2 9 -12 12 -14 6 -15 5 -6 -5z"/>
<path d="M6988 3903 c7 -3 16 -2 19 1 4 3 -2 6 -13 5 -11 0 -14 -3 -6 -6z"/>
<path d="M5750 3890 c-9 -6 -10 -10 -3 -10 6 0 15 5 18 10 8 12 4 12 -15 0z"/>
<path d="M7038 3893 c7 -3 16 -2 19 1 4 3 -2 6 -13 5 -11 0 -14 -3 -6 -6z"/>
<path d="M8701 3888 c2 -2 20 -16 39 -33 l35 -30 -29 33 c-17 17 -34 32 -40
32 -5 0 -7 -1 -5 -2z"/>
<path d="M5510 3820 c-8 -5 -10 -10 -5 -10 6 0 17 5 25 10 8 5 11 10 5 10 -5
0 -17 -5 -25 -10z"/>
<path d="M8790 3806 c0 -2 7 -7 16 -10 8 -3 12 -2 9 4 -6 10 -25 14 -25 6z"/>
<path d="M9659 3793 c-13 -16 -12 -17 4 -4 16 13 21 21 13 21 -2 0 -10 -8 -17
-17z"/>
<path d="M3180 3766 c0 -2 8 -10 18 -17 15 -13 16 -12 3 4 -13 16 -21 21 -21
13z"/>
<path d="M5300 3740 c-8 -5 -10 -10 -5 -10 6 0 17 5 25 10 8 5 11 10 5 10 -5
0 -17 -5 -25 -10z"/>
<path d="M7520 3736 c0 -2 7 -7 16 -10 8 -3 12 -2 9 4 -6 10 -25 14 -25 6z"/>
<path d="M8946 3663 c-6 -14 -5 -15 5 -6 7 7 10 15 7 18 -3 3 -9 -2 -12 -12z"/>
<path d="M7660 3666 c0 -2 7 -7 16 -10 8 -3 12 -2 9 4 -6 10 -25 14 -25 6z"/>
<path d="M5120 3650 c-9 -6 -10 -10 -3 -10 6 0 15 5 18 10 8 12 4 12 -15 0z"/>
<path d="M7700 3646 c0 -2 7 -7 16 -10 8 -3 12 -2 9 4 -6 10 -25 14 -25 6z"/>
<path d="M7920 3521 c0 -6 4 -13 10 -16 6 -3 7 1 4 9 -7 18 -14 21 -14 7z"/>
<path d="M7972 3484 c10 -10 20 -16 22 -13 3 3 -5 11 -17 18 -21 13 -21 12 -5
-5z"/>
<path d="M4830 3479 c0 -5 5 -7 10 -4 6 3 10 8 10 11 0 2 -4 4 -10 4 -5 0 -10
-5 -10 -11z"/>
<path d="M4684 3358 l-19 -23 23 19 c12 11 22 21 22 23 0 8 -8 2 -26 -19z"/>
<path d="M8166 3337 c3 -10 9 -15 12 -12 3 3 0 11 -7 18 -10 9 -11 8 -5 -6z"/>
<path d="M4585 3274 l-30 -26 33 22 c17 12 32 23 32 26 0 7 -4 5 -35 -22z"/>
<path d="M8240 3266 c0 -3 9 -10 20 -16 11 -6 20 -8 20 -6 0 3 -9 10 -20 16
-11 6 -20 8 -20 6z"/>
<path d="M8300 3226 c0 -2 8 -10 18 -17 15 -13 16 -12 3 4 -13 16 -21 21 -21
13z"/>
<path d="M4509 3203 c-13 -16 -12 -17 4 -4 9 7 17 15 17 17 0 8 -8 3 -21 -13z"/>
<path d="M8406 3108 c3 -5 10 -6 15 -3 13 9 11 12 -6 12 -8 0 -12 -4 -9 -9z"/>
<path d="M8501 2884 c0 -11 3 -14 6 -6 3 7 2 16 -1 19 -3 4 -6 -2 -5 -13z"/>
<path d="M8501 2724 c0 -11 3 -14 6 -6 3 7 2 16 -1 19 -3 4 -6 -2 -5 -13z"/>
<path d="M5380 2640 c-9 -6 -10 -10 -3 -10 6 0 15 5 18 10 8 12 4 12 -15 0z"/>
<path d="M5290 2570 c-6 -11 -8 -20 -6 -20 3 0 10 9 16 20 6 11 8 20 6 20 -3
0 -10 -9 -16 -20z"/>
<path d="M7551 2547 c2 -1 13 -9 24 -17 19 -14 19 -14 6 3 -7 9 -18 17 -24 17
-6 0 -8 -1 -6 -3z"/>
<path d="M4406 2517 c2 -7 14 -19 27 -26 21 -13 21 -12 -2 13 -27 29 -33 32
-25 13z"/>
<path d="M7610 2496 c0 -2 8 -10 18 -17 15 -13 16 -12 3 4 -13 16 -21 21 -21
13z"/>
<path d="M7660 2456 c0 -2 8 -10 18 -17 15 -13 16 -12 3 4 -13 16 -21 21 -21
13z"/>
<path d="M4597 2359 c7 -7 15 -10 18 -7 3 3 -2 9 -12 12 -14 6 -15 5 -6 -5z"/>
<path d="M6388 2283 c12 -2 30 -2 40 0 9 3 -1 5 -23 4 -22 0 -30 -2 -17 -4z"/>
<path d="M6640 2221 c0 -6 4 -13 10 -16 6 -3 7 1 4 9 -7 18 -14 21 -14 7z"/>
<path d="M6730 2130 c12 -16 24 -30 26 -30 3 0 -4 14 -16 30 -12 17 -24 30
-26 30 -3 0 4 -13 16 -30z"/>
<path d="M6821 1914 c0 -11 3 -14 6 -6 3 7 2 16 -1 19 -3 4 -6 -2 -5 -13z"/>
<path d="M6823 1855 c0 -22 2 -30 4 -17 2 12 2 30 0 40 -3 9 -5 -1 -4 -23z"/>
<path d="M10720 1831 c0 -31 24 -122 40 -154 11 -21 18 -43 14 -48 -3 -5 -2
-8 3 -7 5 2 32 -17 59 -42 l51 -45 -2131 -3 c-1806 -2 -2134 -5 -2152 -17 -83
-54 -252 -58 -365 -9 l-66 29 -479 -7 c-263 -4 -1028 -12 -1699 -18 -1199 -11
-1876 -23 -1985 -36 -50 -6 -52 -8 -26 -15 78 -22 1648 -45 3946 -59 1451 -8
8214 -5 9045 5 275 3 910 10 1410 15 1692 19 2154 45 1215 69 -201 6 -599 13
-884 17 -436 5 -513 9 -483 19 100 34 176 140 193 265 l7 50 -2857 0 c-1596 0
-2856 -4 -2856 -9z"/>
<path d="M6776 1683 c-6 -14 -5 -15 5 -6 7 7 10 15 7 18 -3 3 -9 -2 -12 -12z"/>
</g>
</svg>
